HIERARCHY
ROOT hip
{
  OFFSET 0 0 0
  CHANNELS 6 Xposition Yposition Zposition Zrotation Yrotation Xrotation
  JOINT abdomen
  {
    OFFSET 0 20.6881 -0.73152
    CHANNELS 3 Zrotation Xrotation Yrotation
    JOINT chest
    {
      OFFSET 0 11.7043 -0.48768
      CHANNELS 3 Zrotation Xrotation Yrotation
      JOINT neck
      {
        OFFSET 0 22.1894 -2.19456
        CHANNELS 3 Zrotation Xrotation Yrotation
        JOINT head
        {
          OFFSET -0.24384 7.07133 1.2192
          CHANNELS 3 Zrotation Xrotation Yrotation
          JOINT leftEye
          {
            OFFSET 4.14528 8.04674 8.04672
            CHANNELS 3 Zrotation Xrotation Yrotation
            End Site
            {
              OFFSET 1 0 0
            }
          }
          JOINT rightEye
          {
            OFFSET -3.6576 8.04674 8.04672
            CHANNELS 3 Zrotation Xrotation Yrotation
            End Site
            {
              OFFSET 1 0 0
            }
          }
        }
      }
      JOINT rCollar
      {
        OFFSET -2.68224 19.2634 -4.8768
        CHANNELS 3 Zrotation Xrotation Yrotation
        JOINT rShldr
        {
          OFFSET -8.77824 -1.95073 1.46304
          CHANNELS 3 Zrotation Xrotation Yrotation
          JOINT rForeArm
          {
            OFFSET -28.1742 -1.7115 0.48768
            CHANNELS 3 Zrotation Xrotation Yrotation
            JOINT rHand
            {
              OFFSET -22.5879 0.773209 7.07136
              CHANNELS 3 Zrotation Xrotation Yrotation
              JOINT rThumb1
              {
                OFFSET -1.2192 -0.487915 3.41376
                CHANNELS 3 Zrotation Xrotation Yrotation
                JOINT rThumb2
                {
                  OFFSET -3.37035 -0.52449 3.41376
                  CHANNELS 3 Zrotation Xrotation Yrotation
                  End Site
                  {
                    OFFSET -1.78271 -1.18214 1.43049
                  }
                }
              }
              JOINT rIndex1
              {
                OFFSET -7.75947 0.938293 5.60832
                CHANNELS 3 Zrotation Xrotation Yrotation
                JOINT rIndex2
                {
                  OFFSET -2.54057 -0.884171 1.56538
                  CHANNELS 3 Zrotation Xrotation Yrotation
                  End Site
                  {
                    OFFSET -1.62519 -0.234802 1.16502
                  }
                }
              }
              JOINT rMid1
              {
                OFFSET -8.24714 1.18213 3.41376
                CHANNELS 3 Zrotation Xrotation Yrotation
                JOINT rMid2
                {
                  OFFSET -3.10165 -0.590103 1.0647
                  CHANNELS 3 Zrotation Xrotation Yrotation
                  End Site
                  {
                    OFFSET -2.48547 -0.328903 0.83742
                  }
                }
              }
              JOINT rRing1
              {
                OFFSET -8.82822 0.546677 1.51678
                CHANNELS 3 Zrotation Xrotation Yrotation
                JOINT rRing2
                {
                  OFFSET -2.60934 -0.819778 -0.0198488
                  CHANNELS 3 Zrotation Xrotation Yrotation
                  End Site
                  {
                    OFFSET -2.33842 -0.294052 0.168128
                  }
                }
              }
              JOINT rPinky1
              {
                OFFSET -8.27202 -0.0477905 -0.4584
                CHANNELS 3 Zrotation Xrotation Yrotation
                JOINT rPinky2
                {
                  OFFSET -1.82734 -0.647385 -0.700984
                  CHANNELS 3 Zrotation Xrotation Yrotation
                  End Site
                  {
                    OFFSET -1.69225 -0.51767 -0.607171
                  }
                }
              }
            }
          }
        }
      }
      JOINT lCollar
      {
        OFFSET 2.68224 19.2634 -4.8768
        CHANNELS 3 Zrotation Xrotation Yrotation
        JOINT lShldr
        {
          OFFSET 8.77824 -1.95073 1.46304
          CHANNELS 3 Zrotation Xrotation Yrotation
          JOINT lForeArm
          {
            OFFSET 28.1742 -1.7115 0.48768
            CHANNELS 3 Zrotation Xrotation Yrotation
            JOINT lHand
            {
              OFFSET 22.5879 0.773209 7.07136
              CHANNELS 3 Zrotation Xrotation Yrotation
              JOINT lThumb1
              {
                OFFSET 1.2192 -0.487915 3.41376
                CHANNELS 3 Zrotation Xrotation Yrotation
                JOINT lThumb2
                {
                  OFFSET 3.37035 -0.52449 3.41376
                  CHANNELS 3 Zrotation Xrotation Yrotation
                  End Site
                  {
                    OFFSET 1.78271 -1.18214 1.43049
                  }
                }
              }
              JOINT lIndex1
              {
                OFFSET 7.75947 0.938293 5.60832
                CHANNELS 3 Zrotation Xrotation Yrotation
                JOINT lIndex2
                {
                  OFFSET 2.54057 -0.884171 1.56538
                  CHANNELS 3 Zrotation Xrotation Yrotation
                  End Site
                  {
                    OFFSET 1.62519 -0.234802 1.16502
                  }
                }
              }
              JOINT lMid1
              {
                OFFSET 8.24714 1.18213 3.41376
                CHANNELS 3 Zrotation Xrotation Yrotation
                JOINT lMid2
                {
                  OFFSET 3.10165 -0.590103 1.0647
                  CHANNELS 3 Zrotation Xrotation Yrotation
                  End Site
                  {
                    OFFSET 2.48547 -0.328903 0.83742
                  }
                }
              }
              JOINT lRing1
              {
                OFFSET 8.82822 0.546677 1.51678
                CHANNELS 3 Zrotation Xrotation Yrotation
                JOINT lRing2
                {
                  OFFSET 2.60934 -0.819778 -0.0198488
                  CHANNELS 3 Zrotation Xrotation Yrotation
                  End Site
                  {
                    OFFSET 2.33842 -0.294052 0.168128
                  }
                }
              }
              JOINT lPinky1
              {
                OFFSET 8.27202 -0.0477905 -0.4584
                CHANNELS 3 Zrotation Xrotation Yrotation
                JOINT lPinky2
                {
                  OFFSET 1.82734 -0.647385 -0.700984
                  CHANNELS 3 Zrotation Xrotation Yrotation
                  End Site
                  {
                    OFFSET 1.69225 -0.51767 -0.607171
                  }
                }
              }
            }
          }
        }
      }
    }
  }
  JOINT rButtock
  {
    OFFSET -8.77824 4.35084 1.2192
    CHANNELS 3 Zrotation Xrotation Yrotation
    JOINT rThigh
    {
      OFFSET 0 -1.70687 -2.19456
      CHANNELS 3 Zrotation Xrotation Yrotation
      JOINT rShin
      {
        OFFSET 0 -36.8199 0.73152
        CHANNELS 3 Zrotation Xrotation Yrotation
        JOINT rFoot
        {
          OFFSET 0.73152 -45.1104 -5.12064
          CHANNELS 3 Zrotation Xrotation Yrotation
          End Site
          {
            OFFSET -1.1221 -3.69964 12.103
          }
        }
      }
    }
  }
  JOINT lButtock
  {
    OFFSET 8.77824 4.35084 1.2192
    CHANNELS 3 Zrotation Xrotation Yrotation
    JOINT lThigh
    {
      OFFSET 0 -1.70687 -2.19456
      CHANNELS 3 Zrotation Xrotation Yrotation
      JOINT lShin
      {
        OFFSET 0 -36.8199 0.73152
        CHANNELS 3 Zrotation Xrotation Yrotation
        JOINT lFoot
        {
          OFFSET -0.73152 -45.1104 -5.12064
          CHANNELS 3 Zrotation Xrotation Yrotation
          End Site
          {
            OFFSET 1.1221 -3.69964 12.103
          }
        }
      }
    }
  }
}
MOTION
Frames:	6
Frame Time:	0.00833333
49.3945 83.4762 85.9926 0.0 0.0 0.0 2.34101 -0.00222425 0.0637216 0.646598 0.00594972 0.111938 -2.25059e-14 1.59028e-15 3.97569e-16 -6.80372e-14 9.54166e-15 1.31229e-15 -0.0 0.0 0.0 -0.0 0.0 0.0 -1.13817e-14 6.9497e-17 2.48481e-16 -2.35886e-13 1.62755e-15 4.57205e-15 -4.06907e-12 1.26507e-12 9.54166e-14 -4.65585e-11 -9.4629e-13 8.015e-13 -1.09824e-10 6.86401e-13 1.97194e-12 -1.89671e-10 1.17999e-12 3.40081e-12 -1.09823e-10 6.86602e-13 1.95922e-12 7.73091 5.47488 0.417314 -1.09825e-10 6.86801e-13 1.9624e-12 2.90554 0.965183 0.102902 -1.09818e-10 6.86403e-13 1.96558e-12 10.2786 0.731801 0.0259123 -1.09827e-10 6.88988e-13 1.96876e-12 2.22167 -0.733487 -0.20892 -1.15786e-14 6.60027e-17 4.96962e-17 -2.38947e-13 2.03133e-15 2.78299e-15 -4.07101e-12 -1.16269e-12 1.20861e-13 -4.65741e-11 1.49262e-12 7.85597e-13 -1.0986e-10 7.07401e-13 1.95604e-12 -1.89713e-10 1.21815e-12 3.4016e-12 -1.09864e-10 7.03698e-13 1.97194e-12 -7.73091 5.47488 -0.417314 -1.09859e-10 7.06878e-13 1.9624e-12 -2.90554 0.965183 -0.102902 -1.09861e-10 7.06978e-13 1.96717e-12 -10.2786 0.731801 -0.0259123 -1.09852e-10 7.11252e-13 1.9624e-12 -2.22167 -0.733487 0.20892 -2.03217e-16 0.0 -3.88251e-19 2.21543 -8.02974 -0.231356 0.00607208 8.9737 0.152075 -0.47763 -0.951463 0.0348576 2.03217e-16 0.0 3.88251e-19 1.35201 -1.92788 -0.00535707 0.00846694 -2.07867 0.0694633 0.423919 3.99897 -0.127298
50.4162 80.9378 74.9627 -178.335 -1.622 -176.764 3.44165 1.98312 1.96578 0.110428 -2.71439 0.644583 -2.35987 2.35804 -0.744173 3.21287 -5.00562 -0.719504 -0.0 0.0 0.0 -0.0 0.0 0.0 4.16202e-15 -1.61135e-14 4.75724e-15 20.7273 11.0882 -3.20148 -5.65538 -2.9393 8.39484 -4.28794e-05 -0.0644446 -0.00905777 -5.48136e-10 3.14536e-10 5.29371e-12 -9.47626e-10 5.43125e-10 1.00919e-11 -5.48132e-10 3.14537e-10 5.28193e-12 7.73091 5.47488 0.417314 -5.48136e-10 3.14536e-10 5.28583e-12 2.90554 0.965183 0.102902 -5.48125e-10 3.14536e-10 5.28744e-12 10.2786 0.731801 0.0259123 -5.48136e-10 3.14537e-10 5.28936e-12 2.22167 -0.733487 -0.20892 3.96164e-15 -1.61156e-14 4.52662e-15 -20.7666 9.06685 2.7546 4.74558 -2.27235 -7.28188 -0.011173 2.34512 -0.328588 -1.57758e-10 -2.0374e-10 -2.15973e-10 -2.73784e-10 -3.52939e-10 -3.7314e-10 -1.57763e-10 -2.03743e-10 -2.15958e-10 -7.73091 5.47488 -0.417314 -1.57757e-10 -2.0374e-10 -2.15969e-10 -2.90554 0.965183 -0.102902 -1.57757e-10 -2.0374e-10 -2.15964e-10 -10.2786 0.731801 -0.0259123 -1.57751e-10 -2.03736e-10 -2.15973e-10 -2.22167 -0.733487 0.20892 -2.03217e-16 0.0 -3.88251e-19 3.66863 -13.616 -0.311683 0.0513892 20.2318 0.377145 -1.90371 -7.11895 -5.98918 2.03217e-16 0.0 3.88251e-19 1.18844 -9.54225 -2.44258 -0.0516913 12.0279 -0.160211 0.652272 -4.34175 1.46098
50.4113 80.9322 75.0044 -178.388 -1.5175 -176.751 4.46019 4.0686 3.98962 -0.398506 -5.58439 1.21378 -4.78418 4.84066 -1.52151 6.46806 -10.2825 -1.4726 -0.0 0.0 0.0 -0.0 0.0 0.0 1.98463e-14 -3.31177e-14 1.12282e-14 44.102 22.6935 -7.01921 -10.7006 -5.83015 17.3294 -0.000143614 -0.114252 -0.0160589 -1.02742e-09 6.51738e-10 1.55976e-11 -1.77645e-09 1.12538e-09 2.89663e-11 -1.02741e-09 6.51741e-10 1.55869e-11 7.73091 5.47488 0.417314 -1.02742e-09 6.51739e-10 1.55915e-11 2.90554 0.965183 0.102902 -1.0274e-09 6.51739e-10 1.55914e-11 10.2786 0.731801 0.0259123 -1.02741e-09 6.51739e-10 1.55919e-11 2.22167 -0.733487 -0.20892 1.96417e-14 -3.31183e-14 1.09611e-14 -43.7325 18.5955 5.91305 9.14231 -4.55422 -15.0204 0.00636381 4.82625 -0.678105 -2.17152e-10 -4.31919e-10 -4.45477e-10 -3.778e-10 -7.48172e-10 -7.69628e-10 -2.17158e-10 -4.31922e-10 -4.45462e-10 -7.73091 5.47488 -0.417314 -2.17151e-10 -4.31918e-10 -4.45476e-10 -2.90554 0.965183 -0.102902 -2.17147e-10 -4.31918e-10 -4.45469e-10 -10.2786 0.731801 -0.0259123 -2.17144e-10 -4.31915e-10 -4.45484e-10 -2.22167 -0.733487 0.20892 -2.03217e-16 0.0 -3.88251e-19 5.18568 -19.5058 -0.406425 -0.0149149 32.1248 0.672045 -4.84706 -13.4038 -12.612 2.03217e-16 0.0 3.88251e-19 0.278456 -17.5267 -5.19602 0.019719 26.9318 -0.443861 1.40858 -13.1421 3.21902
50.4225 80.9186 75.09 -178.323 -1.3308 -176.64 5.24641 5.92705 5.79745 -0.808821 -8.15194 1.72514 -6.89471 7.06934 -2.24772 9.25021 -15.0072 -2.22625 -0.0 0.0 0.0 -0.0 0.0 0.0 3.52495e-14 -4.84796e-14 1.37748e-14 66.476 32.8085 -11.2351 -14.4534 -8.06225 25.42 -0.000189766 -0.193334 -0.0271734 -1.42476e-09 9.42234e-10 1.19372e-11 -2.46354e-09 1.62701e-09 2.3474e-11 -1.42475e-09 9.42238e-10 1.19273e-11 7.73091 5.47488 0.417314 -1.42476e-09 9.42235e-10 1.19327e-11 2.90554 0.965183 0.102902 -1.42474e-09 9.42236e-10 1.19311e-11 10.2786 0.731801 0.0259123 -1.42475e-09 9.42234e-10 1.19306e-11 2.22167 -0.733487 -0.20892 3.50422e-14 -4.8479e-14 1.34805e-14 -65.1745 26.9333 9.16135 12.5416 -6.37755 -21.9713 0.0476924 7.03443 -0.992409 -2.53556e-10 -6.12635e-10 -6.51831e-10 -4.41924e-10 -1.06125e-09 -1.12622e-09 -2.53562e-10 -6.12636e-10 -6.51818e-10 -7.73091 5.47488 -0.417314 -2.53553e-10 -6.12632e-10 -6.51833e-10 -2.90554 0.965183 -0.102902 -2.53547e-10 -6.12633e-10 -6.51825e-10 -10.2786 0.731801 -0.0259123 -2.53547e-10 -6.1263e-10 -6.51844e-10 -2.22167 -0.733487 0.20892 -2.03217e-16 0.0 -3.88251e-19 6.52242 -24.7883 -0.496326 -0.217711 42.7446 1.03653 -8.75496 -18.5871 -18.9195 2.03217e-16 0.0 3.88251e-19 -1.2446 -24.5871 -7.93948 0.248173 40.2384 -0.797685 2.57001 -20.9557 4.95267
50.4293 80.907 75.186 -178.304 -1.088 -176.523 5.73191 7.24347 7.03928 -1.08152 -9.96631 2.07756 -8.3451 8.66726 -2.83257 11.103 -18.3587 -2.92341 -0.0 0.0 0.0 -0.0 0.0 0.0 4.99503e-14 -5.97358e-14 6.5102e-15 83.117 39.6319 -14.9055 -16.7063 -9.36028 31.1782 -0.000146494 -0.345604 -0.048572 -1.61725e-09 1.11596e-09 -2.6634e-11 -2.7963e-09 1.92709e-09 -4.29351e-11 -1.61725e-09 1.11597e-09 -2.66435e-11 7.73091 5.47488 0.417314 -1.61725e-09 1.11596e-09 -2.66371e-11 2.90554 0.965183 0.102902 -1.61724e-09 1.11597e-09 -2.66395e-11 10.2786 0.731801 0.0259123 -1.61725e-09 1.11596e-09 -2.66403e-11 2.22167 -0.733487 -0.20892 4.97435e-14 -5.97348e-14 6.21202e-15 -80.6677 32.5514 11.7722 14.6312 -7.47526 -26.833 0.0907442 8.56112 -1.21231 -2.32483e-10 -6.74691e-10 -8.00313e-10 -4.06317e-10 -1.16895e-09 -1.38308e-09 -2.32489e-10 -6.74691e-10 -8.00301e-10 -7.73091 5.47488 -0.417314 -2.3248e-10 -6.74688e-10 -8.00317e-10 -2.90554 0.965183 -0.102902 -2.32474e-10 -6.74688e-10 -8.00309e-10 -10.2786 0.731801 -0.0259123 -2.32475e-10 -6.74685e-10 -8.00329e-10 -2.22167 -0.733487 0.20892 -2.03217e-16 0.0 -3.88251e-19 7.44931 -28.5527 -0.553741 -0.487914 50.1845 1.39814 -12.2026 -21.8381 -23.6061 2.03217e-16 0.0 3.88251e-19 -2.76263 -29.5101 -10.0866 0.561886 49.5535 -1.16774 3.68336 -26.3697 6.30173
50.4012 80.9001 75.2389 -178.389 -0.955 -176.495 5.93056 7.81808 7.4626 -1.21631 -10.7379 2.19385 -8.92308 9.39376 -3.22207 11.7692 -19.7948 -3.52546 -0.0 0.0 0.0 -0.0 0.0 0.0 6.73011e-14 -6.87825e-14 -1.99713e-14 89.7343 42.2323 -16.4509 -17.5547 -9.83813 33.5551 -0.000224501 -0.611346 -0.085919 -1.52568e-09 1.13509e-09 -1.19948e-10 -2.63761e-09 1.96029e-09 -2.04795e-10 -1.52567e-09 1.1351e-09 -1.19958e-10 7.73091 5.47488 0.417314 -1.52568e-09 1.13509e-09 -1.19951e-10 2.90554 0.965183 0.102902 -1.52567e-09 1.13509e-09 -1.19953e-10 10.2786 0.731801 0.0259123 -1.52568e-09 1.13509e-09 -1.19953e-10 2.22167 -0.733487 -0.20892 6.70984e-14 -6.87824e-14 -2.02314e-14 -86.6402 34.5526 12.7889 15.3688 -7.84066 -28.6913 0.110636 9.14979 -1.29781 -9.21173e-11 -5.51618e-10 -9.12132e-10 -1.64219e-10 -9.56395e-10 -1.57733e-09 -9.21245e-11 -5.51616e-10 -9.12121e-10 -7.73091 5.47488 -0.417314 -9.2115e-11 -5.51614e-10 -9.12136e-10 -2.90554 0.965183 -0.102902 -9.21121e-11 -5.51613e-10 -9.12128e-10 -10.2786 0.731801 -0.0259123 -9.21119e-11 -5.51611e-10 -9.12146e-10 -2.22167 -0.733487 0.20892 -2.03217e-16 0.0 -3.88251e-19 7.82741 -30.1965 -0.56435 -0.640209 53.1739 1.58169 -13.6942 -22.9558 -25.5105 2.03217e-16 0.0 3.88251e-19 -3.45717 -31.5813 -10.9697 0.744003 53.2865 -1.36445 4.16553 -28.477 6.82288
